# MagicaVoxel @ Ephtracy

# group
o 

# material
mtllib ship.vox.mtl
usemtl palette

# normals
vn -1 0 0
vn 1 0 0
vn 0 0 1
vn 0 0 -1
vn 0 -1 0
vn 0 1 0

# texcoords
vt 0.537109 0.5
vt 0.873047 0.5
vt 0.958984 0.5
vt 0.994141 0.5

# verts
v -0.4 0.2 0.7
v -0.4 0.2 0.6
v -0.4 0.4 0.7
v -0.4 0.4 0.6
v -0.3 0.3 0.8
v -0.3 0.3 0.7
v -0.3 0.3 0.6
v -0.3 0.3 0.5
v -0.3 0.4 0.8
v -0.3 0.4 0.7
v -0.3 0.4 0.6
v -0.3 0.4 0.5
v -0.3 0.7 0.8
v -0.3 0.7 0.7
v -0.3 0.7 0.6
v -0.3 0.7 0.5
v -0.2 0.2 0.8
v -0.2 0.2 0.7
v -0.2 0.2 0.6
v -0.2 0.2 0.5
v -0.2 0.3 0.8
v -0.2 0.3 0.7
v -0.2 0.3 0.6
v -0.2 0.3 0.5
v -0.2 0.4 0.9
v -0.2 0.4 0.8
v -0.2 0.4 0.5
v -0.2 0.4 0.4
v -0.2 0.7 0.9
v -0.2 0.7 0.8
v -0.2 0.7 0.5
v -0.2 0.7 0.4
v -0.1 0.3 0.9
v -0.1 0.3 0.8
v -0.1 0.3 0.5
v -0.1 0.3 0.4
v -0.1 0.4 0.9
v -0.1 0.4 0.8
v -0.1 0.4 0.5
v -0.1 0.4 0.4
v 0.1 0.5 1
v 0.1 0.5 0.9
v 0.1 0.5 0.4
v 0.1 0.5 0.3
v 0.1 0.6 1
v 0.1 0.6 0.9
v 0.1 0.6 0.4
v 0.1 0.6 0.3
v 0.3 0.5 1
v 0.3 0.5 0.9
v 0.3 0.5 0.4
v 0.3 0.5 0.3
v 0.3 0.6 1
v 0.3 0.6 0.9
v 0.3 0.6 0.4
v 0.3 0.6 0.3
v 0.4 0.6 0.7
v 0.4 0.6 0.6
v 0.4 0.8 1.1
v 0.4 0.8 1
v 0.4 0.8 0.7
v 0.4 0.8 0.6
v 0.4 0.8 0.3
v 0.4 0.8 0.2
v 0.4 0.9 1.1
v 0.4 0.9 1
v 0.4 0.9 0.7
v 0.4 0.9 0.6
v 0.4 0.9 0.3
v 0.4 0.9 0.2
v 0.4 1.4 1.1
v 0.4 1.4 1
v 0.4 1.4 0.7
v 0.4 1.4 0.6
v 0.4 1.4 0.3
v 0.4 1.4 0.2
v 0.4 1.5 1.1
v 0.4 1.5 1
v 0.4 1.5 0.7
v 0.4 1.5 0.6
v 0.4 1.5 0.3
v 0.4 1.5 0.2
v 0.4 1.6 1
v 0.4 1.6 0.7
v 0.4 1.6 0.6
v 0.4 1.6 0.3
v 0.4 1.7 0.7
v 0.4 1.7 0.6
v 0.5 0.5 1
v 0.5 0.5 0.9
v 0.5 0.5 0.4
v 0.5 0.5 0.3
v 0.5 0.6 1
v 0.5 0.6 0.9
v 0.5 0.6 0.4
v 0.5 0.6 0.3
v 0.5 0.9 1.1
v 0.5 0.9 1
v 0.5 0.9 0.3
v 0.5 0.9 0.2
v 0.5 1.4 1.1
v 0.5 1.4 1
v 0.5 1.4 0.3
v 0.5 1.4 0.2
v 0.6 0.9 1
v 0.6 0.9 0.3
v 0.6 1.4 1
v 0.6 1.4 0.3
v 0.9 0.6 0.7
v 0.9 0.6 0.6
v 0.9 0.7 0.7
v 0.9 0.7 0.6
v -0.2 0.6 0.8
v -0.2 0.6 0.7
v -0.2 0.6 0.6
v -0.2 0.6 0.5
v -0.2 0.7 0.8
v -0.2 0.7 0.7
v -0.2 0.7 0.6
v -0.2 0.7 0.5
v 0.2 0.5 1
v 0.2 0.5 0.9
v 0.2 0.5 0.4
v 0.2 0.5 0.3
v 0.2 0.6 1
v 0.2 0.6 0.9
v 0.2 0.6 0.4
v 0.2 0.6 0.3
v 0.4 0.5 1
v 0.4 0.5 0.9
v 0.4 0.5 0.4
v 0.4 0.5 0.3
v 0.4 0.6 1
v 0.4 0.6 0.9
v 0.4 0.6 0.4
v 0.4 0.6 0.3
v 0.5 0.6 0.7
v 0.5 0.6 0.6
v 0.5 0.8 1.1
v 0.5 0.8 1
v 0.5 0.8 0.7
v 0.5 0.8 0.6
v 0.5 0.8 0.3
v 0.5 0.8 0.2
v 0.5 0.9 1.1
v 0.5 0.9 1
v 0.5 0.9 0.7
v 0.5 0.9 0.6
v 0.5 0.9 0.3
v 0.5 0.9 0.2
v 0.5 1.4 1.1
v 0.5 1.4 1
v 0.5 1.4 0.7
v 0.5 1.4 0.6
v 0.5 1.4 0.3
v 0.5 1.4 0.2
v 0.5 1.5 1.1
v 0.5 1.5 1
v 0.5 1.5 0.7
v 0.5 1.5 0.6
v 0.5 1.5 0.3
v 0.5 1.5 0.2
v 0.5 1.6 1
v 0.5 1.6 0.7
v 0.5 1.6 0.6
v 0.5 1.6 0.3
v 0.5 1.7 0.7
v 0.5 1.7 0.6
v 0.6 0.5 1
v 0.6 0.5 0.9
v 0.6 0.5 0.4
v 0.6 0.5 0.3
v 0.6 0.6 1
v 0.6 0.6 0.9
v 0.6 0.6 0.4
v 0.6 0.6 0.3
v 0.6 0.8 1
v 0.6 0.8 0.9
v 0.6 0.8 0.4
v 0.6 0.8 0.3
v 0.6 0.9 1.1
v 0.6 0.9 1
v 0.6 0.9 0.9
v 0.6 0.9 0.4
v 0.6 0.9 0.3
v 0.6 0.9 0.2
v 0.6 1.4 1.1
v 0.6 1.4 1
v 0.6 1.4 0.3
v 0.6 1.4 0.2
v 0.6 1.5 1
v 0.6 1.5 0.3
v 0.7 0.3 0.5
v 0.7 0.3 0.4
v 0.7 0.4 0.5
v 0.7 0.4 0.4
v 0.7 0.6 0.9
v 0.7 0.6 0.8
v 0.7 0.6 0.5
v 0.7 0.6 0.4
v 0.7 0.7 0.9
v 0.7 0.7 0.8
v 0.7 0.7 0.5
v 0.7 0.7 0.4
v 0.7 0.8 0.9
v 0.7 0.8 0.4
v 0.7 0.9 1
v 0.7 0.9 0.9
v 0.7 0.9 0.4
v 0.7 0.9 0.3
v 0.7 1.4 1
v 0.7 1.4 0.3
v 0.8 0.3 0.9
v 0.8 0.3 0.8
v 0.8 0.4 0.9
v 0.8 0.4 0.8
v 0.8 0.4 0.5
v 0.8 0.4 0.4
v 0.8 0.5 0.5
v 0.8 0.5 0.4
v 0.9 0.2 0.8
v 0.9 0.2 0.7
v 0.9 0.2 0.6
v 0.9 0.2 0.5
v 0.9 0.3 0.8
v 0.9 0.3 0.7
v 0.9 0.3 0.6
v 0.9 0.3 0.5
v 0.9 0.4 0.9
v 0.9 0.4 0.8
v 0.9 0.4 0.7
v 0.9 0.4 0.6
v 0.9 0.4 0.5
v 0.9 0.5 0.5
v 0.9 0.5 0.4
v 0.9 0.6 0.9
v 0.9 0.6 0.8
v 0.9 0.6 0.5
v 0.9 0.6 0.4
v 1 0.2 0.7
v 1 0.2 0.6
v 1 0.3 0.7
v 1 0.3 0.6
v 1 0.4 0.8
v 1 0.4 0.7
v 1 0.4 0.6
v 1 0.4 0.5
v 1 0.5 0.8
v 1 0.5 0.7
v 1 0.5 0.6
v 1 0.5 0.5
v 1 0.6 0.7
v 1 0.6 0.6
v 1 0.7 0.7
v 1 0.7 0.6
v 1.1 0.3 0.7
v 1.1 0.3 0.6
v 1.1 0.4 0.7
v 1.1 0.4 0.6
v 1.2 0.4 0.7
v 1.2 0.4 0.6
v 1.2 0.5 0.8
v 1.2 0.5 0.7
v 1.2 0.5 0.6
v 1.2 0.5 0.5
v 1.2 0.6 0.8
v 1.2 0.6 0.7
v 1.2 0.6 0.6
v 1.2 0.6 0.5
v 1.6 0.5 0.7
v 1.6 0.5 0.6
v 1.6 0.6 0.7
v 1.6 0.6 0.6
v 0.4 0.8 1.1
v 0.4 0.9 1.1
v 0.4 1.4 1.1
v 0.4 1.5 1.1
v 0.5 0.8 1.1
v 0.5 0.9 1.1
v 0.5 1.4 1.1
v 0.5 1.5 1.1
v 0.6 0.9 1.1
v 0.6 1.4 1.1
v 0.1 0.5 1
v 0.1 0.6 1
v 0.2 0.5 1
v 0.2 0.6 1
v 0.3 0.5 1
v 0.3 0.6 1
v 0.4 0.5 1
v 0.4 0.6 1
v 0.4 1.5 1
v 0.4 1.6 1
v 0.5 0.5 1
v 0.5 0.6 1
v 0.5 0.8 1
v 0.5 0.9 1
v 0.5 1.4 1
v 0.5 1.5 1
v 0.5 1.6 1
v 0.6 0.5 1
v 0.6 0.6 1
v 0.6 0.8 1
v 0.6 0.9 1
v 0.6 1.4 1
v 0.6 1.5 1
v 0.7 0.9 1
v 0.7 1.4 1
v -0.2 0.4 0.9
v -0.2 0.7 0.9
v -0.1 0.3 0.9
v -0.1 0.4 0.9
v 0.1 0.5 0.9
v 0.1 0.6 0.9
v 0.2 0.5 0.9
v 0.2 0.6 0.9
v 0.3 0.5 0.9
v 0.3 0.6 0.9
v 0.4 0.5 0.9
v 0.4 0.6 0.9
v 0.5 0.5 0.9
v 0.5 0.6 0.9
v 0.6 0.5 0.9
v 0.6 0.6 0.9
v 0.6 0.8 0.9
v 0.6 0.9 0.9
v 0.7 0.6 0.9
v 0.7 0.7 0.9
v 0.7 0.8 0.9
v 0.7 0.9 0.9
v 0.8 0.3 0.9
v 0.8 0.4 0.9
v 0.9 0.4 0.9
v 0.9 0.6 0.9
v -0.3 0.3 0.8
v -0.3 0.4 0.8
v -0.3 0.7 0.8
v -0.2 0.2 0.8
v -0.2 0.3 0.8
v -0.2 0.4 0.8
v -0.2 0.7 0.8
v -0.1 0.3 0.8
v -0.1 0.4 0.8
v 0.8 0.3 0.8
v 0.8 0.4 0.8
v 0.9 0.2 0.8
v 0.9 0.3 0.8
v 0.9 0.4 0.8
v 0.9 0.6 0.8
v 1 0.4 0.8
v 1 0.5 0.8
v 1.2 0.5 0.8
v 1.2 0.6 0.8
v -0.4 0.2 0.7
v -0.4 0.4 0.7
v -0.3 0.3 0.7
v -0.3 0.4 0.7
v -0.2 0.2 0.7
v -0.2 0.3 0.7
v 0.4 0.6 0.7
v 0.4 0.8 0.7
v 0.4 0.9 0.7
v 0.4 1.4 0.7
v 0.4 1.6 0.7
v 0.4 1.7 0.7
v 0.5 0.6 0.7
v 0.5 0.8 0.7
v 0.5 0.9 0.7
v 0.5 1.4 0.7
v 0.5 1.6 0.7
v 0.5 1.7 0.7
v 0.9 0.2 0.7
v 0.9 0.3 0.7
v 0.9 0.4 0.7
v 0.9 0.6 0.7
v 0.9 0.7 0.7
v 1 0.2 0.7
v 1 0.3 0.7
v 1 0.4 0.7
v 1 0.5 0.7
v 1 0.6 0.7
v 1 0.7 0.7
v 1.1 0.3 0.7
v 1.1 0.4 0.7
v 1.2 0.4 0.7
v 1.2 0.5 0.7
v 1.2 0.6 0.7
v 1.6 0.5 0.7
v 1.6 0.6 0.7
v -0.2 0.6 0.5
v -0.2 0.7 0.5
v 0.7 0.6 0.5
v 0.7 0.7 0.5
v 0.5 0.9 0.3
v 0.5 1.4 0.3
v 0.6 0.9 0.3
v 0.6 1.4 0.3
v 0.5 0.9 1
v 0.5 1.4 1
v 0.6 0.9 1
v 0.6 1.4 1
v -0.2 0.6 0.8
v -0.2 0.7 0.8
v 0.7 0.6 0.8
v 0.7 0.7 0.8
v -0.4 0.2 0.6
v -0.4 0.4 0.6
v -0.3 0.3 0.6
v -0.3 0.4 0.6
v -0.2 0.2 0.6
v -0.2 0.3 0.6
v 0.4 0.6 0.6
v 0.4 0.8 0.6
v 0.4 0.9 0.6
v 0.4 1.4 0.6
v 0.4 1.6 0.6
v 0.4 1.7 0.6
v 0.5 0.6 0.6
v 0.5 0.8 0.6
v 0.5 0.9 0.6
v 0.5 1.4 0.6
v 0.5 1.6 0.6
v 0.5 1.7 0.6
v 0.9 0.2 0.6
v 0.9 0.3 0.6
v 0.9 0.4 0.6
v 0.9 0.6 0.6
v 0.9 0.7 0.6
v 1 0.2 0.6
v 1 0.3 0.6
v 1 0.4 0.6
v 1 0.5 0.6
v 1 0.6 0.6
v 1 0.7 0.6
v 1.1 0.3 0.6
v 1.1 0.4 0.6
v 1.2 0.4 0.6
v 1.2 0.5 0.6
v 1.2 0.6 0.6
v 1.6 0.5 0.6
v 1.6 0.6 0.6
v -0.3 0.3 0.5
v -0.3 0.4 0.5
v -0.3 0.7 0.5
v -0.2 0.2 0.5
v -0.2 0.3 0.5
v -0.2 0.4 0.5
v -0.2 0.7 0.5
v -0.1 0.3 0.5
v -0.1 0.4 0.5
v 0.7 0.3 0.5
v 0.7 0.4 0.5
v 0.8 0.4 0.5
v 0.8 0.5 0.5
v 0.9 0.2 0.5
v 0.9 0.3 0.5
v 0.9 0.4 0.5
v 0.9 0.5 0.5
v 0.9 0.6 0.5
v 1 0.4 0.5
v 1 0.5 0.5
v 1.2 0.5 0.5
v 1.2 0.6 0.5
v -0.2 0.4 0.4
v -0.2 0.7 0.4
v -0.1 0.3 0.4
v -0.1 0.4 0.4
v 0.1 0.5 0.4
v 0.1 0.6 0.4
v 0.2 0.5 0.4
v 0.2 0.6 0.4
v 0.3 0.5 0.4
v 0.3 0.6 0.4
v 0.4 0.5 0.4
v 0.4 0.6 0.4
v 0.5 0.5 0.4
v 0.5 0.6 0.4
v 0.6 0.5 0.4
v 0.6 0.6 0.4
v 0.6 0.8 0.4
v 0.6 0.9 0.4
v 0.7 0.3 0.4
v 0.7 0.4 0.4
v 0.7 0.6 0.4
v 0.7 0.7 0.4
v 0.7 0.8 0.4
v 0.7 0.9 0.4
v 0.8 0.4 0.4
v 0.8 0.5 0.4
v 0.9 0.5 0.4
v 0.9 0.6 0.4
v 0.1 0.5 0.3
v 0.1 0.6 0.3
v 0.2 0.5 0.3
v 0.2 0.6 0.3
v 0.3 0.5 0.3
v 0.3 0.6 0.3
v 0.4 0.5 0.3
v 0.4 0.6 0.3
v 0.4 1.5 0.3
v 0.4 1.6 0.3
v 0.5 0.5 0.3
v 0.5 0.6 0.3
v 0.5 0.8 0.3
v 0.5 0.9 0.3
v 0.5 1.4 0.3
v 0.5 1.5 0.3
v 0.5 1.6 0.3
v 0.6 0.5 0.3
v 0.6 0.6 0.3
v 0.6 0.8 0.3
v 0.6 0.9 0.3
v 0.6 1.4 0.3
v 0.6 1.5 0.3
v 0.7 0.9 0.3
v 0.7 1.4 0.3
v 0.4 0.8 0.2
v 0.4 0.9 0.2
v 0.4 1.4 0.2
v 0.4 1.5 0.2
v 0.5 0.8 0.2
v 0.5 0.9 0.2
v 0.5 1.4 0.2
v 0.5 1.5 0.2
v 0.6 0.9 0.2
v 0.6 1.4 0.2
v -0.2 0.2 0.8
v 0.9 0.2 0.8
v -0.4 0.2 0.7
v -0.2 0.2 0.7
v 0.9 0.2 0.7
v 1 0.2 0.7
v -0.4 0.2 0.6
v -0.2 0.2 0.6
v 0.9 0.2 0.6
v 1 0.2 0.6
v -0.2 0.2 0.5
v 0.9 0.2 0.5
v -0.1 0.3 0.9
v 0.8 0.3 0.9
v -0.3 0.3 0.8
v -0.2 0.3 0.8
v -0.1 0.3 0.8
v 0.8 0.3 0.8
v -0.3 0.3 0.7
v -0.2 0.3 0.7
v 1 0.3 0.7
v 1.1 0.3 0.7
v -0.3 0.3 0.6
v -0.2 0.3 0.6
v 1 0.3 0.6
v 1.1 0.3 0.6
v -0.3 0.3 0.5
v -0.2 0.3 0.5
v -0.1 0.3 0.5
v 0.7 0.3 0.5
v -0.1 0.3 0.4
v 0.7 0.3 0.4
v -0.2 0.4 0.9
v -0.1 0.4 0.9
v 0.8 0.4 0.9
v 0.9 0.4 0.9
v -0.2 0.4 0.8
v -0.1 0.4 0.8
v 0.8 0.4 0.8
v 0.9 0.4 0.8
v 1 0.4 0.8
v 0.9 0.4 0.7
v 1 0.4 0.7
v 1.1 0.4 0.7
v 1.2 0.4 0.7
v 0.9 0.4 0.6
v 1 0.4 0.6
v 1.1 0.4 0.6
v 1.2 0.4 0.6
v -0.2 0.4 0.5
v -0.1 0.4 0.5
v 0.7 0.4 0.5
v 0.8 0.4 0.5
v 0.9 0.4 0.5
v 1 0.4 0.5
v -0.2 0.4 0.4
v -0.1 0.4 0.4
v 0.7 0.4 0.4
v 0.8 0.4 0.4
v 0.1 0.5 1
v 0.2 0.5 1
v 0.3 0.5 1
v 0.4 0.5 1
v 0.5 0.5 1
v 0.6 0.5 1
v 0.1 0.5 0.9
v 0.2 0.5 0.9
v 0.3 0.5 0.9
v 0.4 0.5 0.9
v 0.5 0.5 0.9
v 0.6 0.5 0.9
v 1 0.5 0.8
v 1.2 0.5 0.8
v 1 0.5 0.7
v 1.2 0.5 0.7
v 1.6 0.5 0.7
v 1 0.5 0.6
v 1.2 0.5 0.6
v 1.6 0.5 0.6
v 0.8 0.5 0.5
v 0.9 0.5 0.5
v 1 0.5 0.5
v 1.2 0.5 0.5
v 0.1 0.5 0.4
v 0.2 0.5 0.4
v 0.3 0.5 0.4
v 0.4 0.5 0.4
v 0.5 0.5 0.4
v 0.6 0.5 0.4
v 0.8 0.5 0.4
v 0.9 0.5 0.4
v 0.1 0.5 0.3
v 0.2 0.5 0.3
v 0.3 0.5 0.3
v 0.4 0.5 0.3
v 0.5 0.5 0.3
v 0.6 0.5 0.3
v 0.4 0.8 1.1
v 0.5 0.8 1.1
v 0.4 0.8 1
v 0.5 0.8 1
v 0.6 0.8 1
v 0.6 0.8 0.9
v 0.7 0.8 0.9
v 0.4 0.8 0.7
v 0.5 0.8 0.7
v 0.4 0.8 0.6
v 0.5 0.8 0.6
v 0.6 0.8 0.4
v 0.7 0.8 0.4
v 0.4 0.8 0.3
v 0.5 0.8 0.3
v 0.6 0.8 0.3
v 0.4 0.8 0.2
v 0.5 0.8 0.2
v 0.5 0.9 1.1
v 0.6 0.9 1.1
v 0.5 0.9 1
v 0.6 0.9 1
v 0.7 0.9 1
v 0.6 0.9 0.9
v 0.7 0.9 0.9
v 0.6 0.9 0.4
v 0.7 0.9 0.4
v 0.5 0.9 0.3
v 0.6 0.9 0.3
v 0.7 0.9 0.3
v 0.5 0.9 0.2
v 0.6 0.9 0.2
v 0.4 1.4 1.1
v 0.5 1.4 1.1
v 0.4 1.4 1
v 0.5 1.4 1
v 0.6 1.4 1
v 0.4 1.4 0.7
v 0.5 1.4 0.7
v 0.4 1.4 0.6
v 0.5 1.4 0.6
v 0.4 1.4 0.3
v 0.5 1.4 0.3
v 0.6 1.4 0.3
v 0.4 1.4 0.2
v 0.5 1.4 0.2
v -0.4 0.4 0.7
v -0.3 0.4 0.7
v -0.4 0.4 0.6
v -0.3 0.4 0.6
v 0.1 0.6 1
v 0.2 0.6 1
v 0.3 0.6 1
v 0.4 0.6 1
v 0.5 0.6 1
v 0.6 0.6 1
v 0.1 0.6 0.9
v 0.2 0.6 0.9
v 0.3 0.6 0.9
v 0.4 0.6 0.9
v 0.5 0.6 0.9
v 0.6 0.6 0.9
v 0.7 0.6 0.9
v 0.9 0.6 0.9
v -0.2 0.6 0.8
v 0.7 0.6 0.8
v 0.9 0.6 0.8
v 1.2 0.6 0.8
v -0.2 0.6 0.7
v 0.4 0.6 0.7
v 0.5 0.6 0.7
v 0.9 0.6 0.7
v 1 0.6 0.7
v 1.1 0.6 0.7
v 1.2 0.6 0.7
v 1.6 0.6 0.7
v -0.2 0.6 0.6
v 0.4 0.6 0.6
v 0.5 0.6 0.6
v 0.9 0.6 0.6
v 1 0.6 0.6
v 1.1 0.6 0.6
v 1.2 0.6 0.6
v 1.6 0.6 0.6
v -0.2 0.6 0.5
v 0.7 0.6 0.5
v 0.9 0.6 0.5
v 1.2 0.6 0.5
v 0.1 0.6 0.4
v 0.2 0.6 0.4
v 0.3 0.6 0.4
v 0.4 0.6 0.4
v 0.5 0.6 0.4
v 0.6 0.6 0.4
v 0.7 0.6 0.4
v 0.9 0.6 0.4
v 0.1 0.6 0.3
v 0.2 0.6 0.3
v 0.3 0.6 0.3
v 0.4 0.6 0.3
v 0.5 0.6 0.3
v 0.6 0.6 0.3
v -0.2 0.7 0.9
v 0.7 0.7 0.9
v -0.3 0.7 0.8
v -0.2 0.7 0.8
v 0.7 0.7 0.8
v -0.3 0.7 0.7
v -0.2 0.7 0.7
v 0.9 0.7 0.7
v 1 0.7 0.7
v -0.3 0.7 0.6
v -0.2 0.7 0.6
v 0.9 0.7 0.6
v 1 0.7 0.6
v -0.3 0.7 0.5
v -0.2 0.7 0.5
v 0.7 0.7 0.5
v -0.2 0.7 0.4
v 0.7 0.7 0.4
v 0.4 0.9 1.1
v 0.5 0.9 1.1
v 0.4 0.9 1
v 0.5 0.9 1
v 0.6 0.9 1
v 0.4 0.9 0.7
v 0.5 0.9 0.7
v 0.4 0.9 0.6
v 0.5 0.9 0.6
v 0.4 0.9 0.3
v 0.5 0.9 0.3
v 0.6 0.9 0.3
v 0.4 0.9 0.2
v 0.5 0.9 0.2
v 0.5 1.4 1.1
v 0.6 1.4 1.1
v 0.5 1.4 1
v 0.6 1.4 1
v 0.7 1.4 1
v 0.5 1.4 0.3
v 0.6 1.4 0.3
v 0.7 1.4 0.3
v 0.5 1.4 0.2
v 0.6 1.4 0.2
v 0.4 1.5 1.1
v 0.5 1.5 1.1
v 0.4 1.5 1
v 0.5 1.5 1
v 0.6 1.5 1
v 0.5 1.5 0.7
v 0.5 1.5 0.6
v 0.4 1.5 0.3
v 0.5 1.5 0.3
v 0.6 1.5 0.3
v 0.4 1.5 0.2
v 0.5 1.5 0.2
v 0.4 1.6 1
v 0.5 1.6 1
v 0.4 1.6 0.7
v 0.5 1.6 0.7
v 0.4 1.6 0.6
v 0.5 1.6 0.6
v 0.4 1.6 0.3
v 0.5 1.6 0.3
v 0.4 1.7 0.7
v 0.5 1.7 0.7
v 0.4 1.7 0.6
v 0.5 1.7 0.6

# faces
f 3/2/1 2/2/1 1/2/1
f 4/2/1 2/2/1 3/2/1
f 9/2/1 6/2/1 5/2/1
f 10/2/1 6/2/1 9/2/1
f 11/2/1 8/2/1 7/2/1
f 12/2/1 8/2/1 11/2/1
f 13/1/1 10/1/1 9/1/1
f 14/2/1 11/2/1 10/2/1
f 14/1/1 10/1/1 13/1/1
f 15/1/1 12/1/1 11/1/1
f 15/2/1 11/2/1 14/2/1
f 16/1/1 12/1/1 15/1/1
f 21/1/1 18/1/1 17/1/1
f 22/1/1 18/1/1 21/1/1
f 23/1/1 20/1/1 19/1/1
f 24/1/1 20/1/1 23/1/1
f 29/1/1 26/1/1 25/1/1
f 30/1/1 26/1/1 29/1/1
f 31/1/1 28/1/1 27/1/1
f 32/1/1 28/1/1 31/1/1
f 37/2/1 34/2/1 33/2/1
f 38/2/1 34/2/1 37/2/1
f 39/2/1 36/2/1 35/2/1
f 40/2/1 36/2/1 39/2/1
f 45/4/1 42/4/1 41/4/1
f 46/4/1 42/4/1 45/4/1
f 47/4/1 44/4/1 43/4/1
f 48/4/1 44/4/1 47/4/1
f 53/4/1 50/4/1 49/4/1
f 54/4/1 50/4/1 53/4/1
f 55/4/1 52/4/1 51/4/1
f 56/4/1 52/4/1 55/4/1
f 61/1/1 58/1/1 57/1/1
f 62/1/1 58/1/1 61/1/1
f 65/3/1 60/3/1 59/3/1
f 66/1/1 61/1/1 60/1/1
f 66/3/1 60/3/1 65/3/1
f 66/1/1 62/1/1 61/1/1
f 66/1/1 63/1/1 62/1/1
f 67/1/1 63/1/1 66/1/1
f 68/1/1 63/1/1 67/1/1
f 69/3/1 64/3/1 63/3/1
f 69/1/1 63/1/1 68/1/1
f 70/3/1 64/3/1 69/3/1
f 73/1/1 68/1/1 67/1/1
f 74/1/1 68/1/1 73/1/1
f 77/3/1 72/3/1 71/3/1
f 78/1/1 73/1/1 72/1/1
f 78/3/1 72/3/1 77/3/1
f 78/1/1 74/1/1 73/1/1
f 78/1/1 75/1/1 74/1/1
f 79/1/1 75/1/1 78/1/1
f 80/1/1 75/1/1 79/1/1
f 81/3/1 76/3/1 75/3/1
f 81/1/1 75/1/1 80/1/1
f 82/3/1 76/3/1 81/3/1
f 83/3/1 79/3/1 78/3/1
f 84/1/1 80/1/1 79/1/1
f 84/3/1 79/3/1 83/3/1
f 85/3/1 81/3/1 80/3/1
f 85/1/1 80/1/1 84/1/1
f 86/3/1 81/3/1 85/3/1
f 87/1/1 85/1/1 84/1/1
f 88/1/1 85/1/1 87/1/1
f 93/4/1 90/4/1 89/4/1
f 94/4/1 90/4/1 93/4/1
f 95/4/1 92/4/1 91/4/1
f 96/4/1 92/4/1 95/4/1
f 101/3/1 98/3/1 97/3/1
f 102/3/1 98/3/1 101/3/1
f 103/3/1 100/3/1 99/3/1
f 104/3/1 100/3/1 103/3/1
f 107/3/1 106/3/1 105/3/1
f 108/3/1 106/3/1 107/3/1
f 111/1/1 110/1/1 109/1/1
f 112/1/1 110/1/1 111/1/1
f 113/1/2 114/1/2 117/1/2
f 114/2/2 115/2/2 118/2/2
f 117/1/2 114/1/2 118/1/2
f 115/1/2 116/1/2 119/1/2
f 118/2/2 115/2/2 119/2/2
f 119/1/2 116/1/2 120/1/2
f 121/4/2 122/4/2 125/4/2
f 125/4/2 122/4/2 126/4/2
f 123/4/2 124/4/2 127/4/2
f 127/4/2 124/4/2 128/4/2
f 129/4/2 130/4/2 133/4/2
f 133/4/2 130/4/2 134/4/2
f 131/4/2 132/4/2 135/4/2
f 135/4/2 132/4/2 136/4/2
f 137/1/2 138/1/2 141/1/2
f 141/1/2 138/1/2 142/1/2
f 139/3/2 140/3/2 145/3/2
f 145/3/2 140/3/2 146/3/2
f 143/3/2 144/3/2 149/3/2
f 149/3/2 144/3/2 150/3/2
f 147/1/2 148/1/2 153/1/2
f 153/1/2 148/1/2 154/1/2
f 151/3/2 152/3/2 157/3/2
f 157/3/2 152/3/2 158/3/2
f 155/3/2 156/3/2 161/3/2
f 161/3/2 156/3/2 162/3/2
f 158/3/2 159/3/2 163/3/2
f 159/1/2 160/1/2 164/1/2
f 163/3/2 159/3/2 164/3/2
f 160/3/2 161/3/2 165/3/2
f 164/1/2 160/1/2 165/1/2
f 165/3/2 161/3/2 166/3/2
f 164/1/2 165/1/2 167/1/2
f 167/1/2 165/1/2 168/1/2
f 169/4/2 170/4/2 173/4/2
f 173/4/2 170/4/2 174/4/2
f 171/4/2 172/4/2 175/4/2
f 175/4/2 172/4/2 176/4/2
f 177/3/2 178/3/2 182/3/2
f 182/3/2 178/3/2 183/3/2
f 179/3/2 180/3/2 184/3/2
f 184/3/2 180/3/2 185/3/2
f 181/3/2 182/3/2 187/3/2
f 187/3/2 182/3/2 188/3/2
f 185/3/2 186/3/2 189/3/2
f 189/3/2 186/3/2 190/3/2
f 188/3/2 189/3/2 191/3/2
f 191/3/2 189/3/2 192/3/2
f 193/2/2 194/2/2 195/2/2
f 195/2/2 194/2/2 196/2/2
f 197/1/2 198/1/2 201/1/2
f 201/1/2 198/1/2 202/1/2
f 199/1/2 200/1/2 203/1/2
f 203/1/2 200/1/2 204/1/2
f 205/3/2 206/3/2 208/3/2
f 208/3/2 206/3/2 209/3/2
f 208/3/2 209/3/2 211/3/2
f 209/3/2 210/3/2 211/3/2
f 207/3/2 208/3/2 211/3/2
f 211/3/2 210/3/2 212/3/2
f 213/2/2 214/2/2 215/2/2
f 215/2/2 214/2/2 216/2/2
f 217/1/2 218/1/2 219/1/2
f 219/1/2 218/1/2 220/1/2
f 221/1/2 222/1/2 225/1/2
f 225/1/2 222/1/2 226/1/2
f 223/1/2 224/1/2 227/1/2
f 227/1/2 224/1/2 228/1/2
f 225/2/2 226/2/2 230/2/2
f 230/2/2 226/2/2 231/2/2
f 227/2/2 228/2/2 232/2/2
f 232/2/2 228/2/2 233/2/2
f 229/1/2 230/1/2 236/1/2
f 236/1/2 230/1/2 237/1/2
f 234/1/2 235/1/2 238/1/2
f 238/1/2 235/1/2 239/1/2
f 240/2/2 241/2/2 242/2/2
f 242/2/2 241/2/2 243/2/2
f 244/1/2 245/1/2 248/1/2
f 248/1/2 245/1/2 249/1/2
f 246/1/2 247/1/2 250/1/2
f 250/1/2 247/1/2 251/1/2
f 252/1/2 253/1/2 254/1/2
f 254/1/2 253/1/2 255/1/2
f 256/2/2 257/2/2 258/2/2
f 258/2/2 257/2/2 259/2/2
f 260/2/2 261/2/2 263/2/2
f 263/2/2 261/2/2 264/2/2
f 262/1/2 263/1/2 266/1/2
f 266/1/2 263/1/2 267/1/2
f 264/1/2 265/1/2 268/1/2
f 268/1/2 265/1/2 269/1/2
f 270/2/2 271/2/2 272/2/2
f 272/2/2 271/2/2 273/2/2
f 278/3/3 275/3/3 274/3/3
f 279/3/3 275/3/3 278/3/3
f 280/3/3 277/3/3 276/3/3
f 281/3/3 277/3/3 280/3/3
f 282/3/3 280/3/3 279/3/3
f 283/3/3 280/3/3 282/3/3
f 286/4/3 285/4/3 284/4/3
f 287/4/3 285/4/3 286/4/3
f 290/4/3 289/4/3 288/4/3
f 291/4/3 289/4/3 290/4/3
f 299/3/3 293/3/3 292/3/3
f 300/3/3 293/3/3 299/3/3
f 301/4/3 295/4/3 294/4/3
f 302/4/3 295/4/3 301/4/3
f 303/3/3 297/3/3 296/3/3
f 304/3/3 297/3/3 303/3/3
f 305/3/3 299/3/3 298/3/3
f 306/3/3 299/3/3 305/3/3
f 307/3/3 305/3/3 304/3/3
f 308/3/3 305/3/3 307/3/3
f 312/1/3 310/1/3 309/1/3
f 313/1/3 310/1/3 312/1/3
f 314/1/3 310/1/3 313/1/3
f 315/1/3 313/1/3 312/1/3
f 316/1/3 310/1/3 314/1/3
f 317/1/3 315/1/3 312/1/3
f 317/1/3 316/1/3 315/1/3
f 318/1/3 310/1/3 316/1/3
f 318/1/3 316/1/3 317/1/3
f 319/1/3 317/1/3 312/1/3
f 320/1/3 310/1/3 318/1/3
f 321/1/3 319/1/3 312/1/3
f 321/1/3 320/1/3 319/1/3
f 322/1/3 310/1/3 320/1/3
f 322/1/3 320/1/3 321/1/3
f 323/1/3 321/1/3 312/1/3
f 324/1/3 310/1/3 322/1/3
f 327/1/3 310/1/3 324/1/3
f 327/1/3 324/1/3 323/1/3
f 328/1/3 310/1/3 327/1/3
f 329/3/3 326/3/3 325/3/3
f 330/3/3 326/3/3 329/3/3
f 331/2/3 312/2/3 311/2/3
f 332/1/3 323/1/3 312/1/3
f 332/2/3 312/2/3 331/2/3
f 332/1/3 327/1/3 323/1/3
f 333/1/3 327/1/3 332/1/3
f 334/1/3 327/1/3 333/1/3
f 339/2/3 336/2/3 335/2/3
f 340/1/3 337/1/3 336/1/3
f 340/2/3 336/2/3 339/2/3
f 341/1/3 337/1/3 340/1/3
f 342/1/3 339/1/3 338/1/3
f 342/2/3 340/2/3 339/2/3
f 343/2/3 340/2/3 342/2/3
f 344/1/3 342/1/3 338/1/3
f 346/1/3 344/1/3 338/1/3
f 347/2/3 345/2/3 344/2/3
f 347/1/3 344/1/3 346/1/3
f 348/2/3 345/2/3 347/2/3
f 350/1/3 349/1/3 348/1/3
f 351/1/3 349/1/3 350/1/3
f 352/1/3 349/1/3 351/1/3
f 353/1/3 349/1/3 352/1/3
f 356/2/3 355/2/3 354/2/3
f 357/2/3 355/2/3 356/2/3
f 358/2/3 356/2/3 354/2/3
f 359/2/3 356/2/3 358/2/3
f 366/1/3 361/1/3 360/1/3
f 367/1/3 361/1/3 366/1/3
f 368/1/3 363/1/3 362/1/3
f 369/1/3 363/1/3 368/1/3
f 370/1/3 365/1/3 364/1/3
f 371/1/3 365/1/3 370/1/3
f 377/2/3 373/2/3 372/2/3
f 377/2/3 374/2/3 373/2/3
f 378/2/3 374/2/3 377/2/3
f 379/2/3 374/2/3 378/2/3
f 381/1/3 376/1/3 375/1/3
f 382/1/3 376/1/3 381/1/3
f 383/2/3 380/2/3 379/2/3
f 383/2/3 379/2/3 378/2/3
f 384/2/3 380/2/3 383/2/3
f 385/2/3 380/2/3 384/2/3
f 386/2/3 380/2/3 385/2/3
f 388/2/3 387/2/3 386/2/3
f 389/2/3 387/2/3 388/2/3
f 392/1/3 391/1/3 390/1/3
f 393/1/3 391/1/3 392/1/3
f 396/3/3 395/3/3 394/3/3
f 397/3/3 395/3/3 396/3/3
f 398/3/4 399/3/4 400/3/4
f 400/3/4 399/3/4 401/3/4
f 402/1/4 403/1/4 404/1/4
f 404/1/4 403/1/4 405/1/4
f 406/2/4 407/2/4 408/2/4
f 408/2/4 407/2/4 409/2/4
f 406/2/4 408/2/4 410/2/4
f 410/2/4 408/2/4 411/2/4
f 412/1/4 413/1/4 418/1/4
f 418/1/4 413/1/4 419/1/4
f 414/1/4 415/1/4 420/1/4
f 420/1/4 415/1/4 421/1/4
f 416/1/4 417/1/4 422/1/4
f 422/1/4 417/1/4 423/1/4
f 424/2/4 425/2/4 429/2/4
f 425/2/4 426/2/4 429/2/4
f 429/2/4 426/2/4 430/2/4
f 430/2/4 426/2/4 431/2/4
f 427/1/4 428/1/4 433/1/4
f 433/1/4 428/1/4 434/1/4
f 431/2/4 432/2/4 435/2/4
f 430/2/4 431/2/4 435/2/4
f 435/2/4 432/2/4 436/2/4
f 436/2/4 432/2/4 437/2/4
f 437/2/4 432/2/4 438/2/4
f 438/2/4 439/2/4 440/2/4
f 440/2/4 439/2/4 441/2/4
f 442/2/4 443/2/4 446/2/4
f 443/1/4 444/1/4 447/1/4
f 446/2/4 443/2/4 447/2/4
f 447/1/4 444/1/4 448/1/4
f 445/1/4 446/1/4 449/1/4
f 446/2/4 447/2/4 449/2/4
f 449/2/4 447/2/4 450/2/4
f 445/1/4 449/1/4 451/1/4
f 451/2/4 452/2/4 453/2/4
f 445/1/4 451/1/4 455/1/4
f 451/2/4 453/2/4 456/2/4
f 455/1/4 451/1/4 456/1/4
f 453/1/4 454/1/4 457/1/4
f 456/2/4 453/2/4 457/2/4
f 457/1/4 454/1/4 458/1/4
f 458/1/4 459/1/4 460/1/4
f 457/1/4 458/1/4 460/1/4
f 460/1/4 459/1/4 461/1/4
f 461/1/4 459/1/4 462/1/4
f 462/1/4 459/1/4 463/1/4
f 464/1/4 465/1/4 467/1/4
f 467/1/4 465/1/4 468/1/4
f 468/1/4 465/1/4 469/1/4
f 467/1/4 468/1/4 470/1/4
f 469/1/4 465/1/4 471/1/4
f 467/1/4 470/1/4 472/1/4
f 470/1/4 471/1/4 472/1/4
f 471/1/4 465/1/4 473/1/4
f 472/1/4 471/1/4 473/1/4
f 467/1/4 472/1/4 474/1/4
f 473/1/4 465/1/4 475/1/4
f 467/1/4 474/1/4 476/1/4
f 474/1/4 475/1/4 476/1/4
f 475/1/4 465/1/4 477/1/4
f 476/1/4 475/1/4 477/1/4
f 467/1/4 476/1/4 478/1/4
f 477/1/4 465/1/4 479/1/4
f 466/2/4 467/2/4 482/2/4
f 467/1/4 478/1/4 483/1/4
f 482/2/4 467/2/4 483/2/4
f 478/1/4 479/1/4 483/1/4
f 479/1/4 465/1/4 484/1/4
f 483/1/4 479/1/4 484/1/4
f 484/1/4 465/1/4 485/1/4
f 480/3/4 481/3/4 486/3/4
f 486/3/4 481/3/4 487/3/4
f 483/1/4 484/1/4 488/1/4
f 488/1/4 484/1/4 489/1/4
f 489/1/4 484/1/4 490/1/4
f 490/1/4 484/1/4 491/1/4
f 492/4/4 493/4/4 494/4/4
f 494/4/4 493/4/4 495/4/4
f 496/4/4 497/4/4 498/4/4
f 498/4/4 497/4/4 499/4/4
f 500/3/4 501/3/4 507/3/4
f 507/3/4 501/3/4 508/3/4
f 502/4/4 503/4/4 509/4/4
f 509/4/4 503/4/4 510/4/4
f 504/3/4 505/3/4 511/3/4
f 511/3/4 505/3/4 512/3/4
f 506/3/4 507/3/4 513/3/4
f 513/3/4 507/3/4 514/3/4
f 512/3/4 513/3/4 515/3/4
f 515/3/4 513/3/4 516/3/4
f 517/3/4 518/3/4 521/3/4
f 521/3/4 518/3/4 522/3/4
f 519/3/4 520/3/4 523/3/4
f 523/3/4 520/3/4 524/3/4
f 522/3/4 523/3/4 525/3/4
f 525/3/4 523/3/4 526/3/4
f 530/1/5 528/1/5 527/1/5
f 531/1/5 528/1/5 530/1/5
f 533/2/5 530/2/5 529/2/5
f 534/1/5 531/1/5 530/1/5
f 534/2/5 530/2/5 533/2/5
f 535/2/5 532/2/5 531/2/5
f 535/1/5 531/1/5 534/1/5
f 536/2/5 532/2/5 535/2/5
f 537/1/5 535/1/5 534/1/5
f 538/1/5 535/1/5 537/1/5
f 543/2/5 540/2/5 539/2/5
f 544/2/5 540/2/5 543/2/5
f 545/2/5 542/2/5 541/2/5
f 546/2/5 542/2/5 545/2/5
f 551/2/5 548/2/5 547/2/5
f 552/2/5 548/2/5 551/2/5
f 553/2/5 550/2/5 549/2/5
f 554/2/5 550/2/5 553/2/5
f 557/2/5 556/2/5 555/2/5
f 558/2/5 556/2/5 557/2/5
f 563/1/5 560/1/5 559/1/5
f 564/1/5 560/1/5 563/1/5
f 565/1/5 562/1/5 561/1/5
f 566/1/5 562/1/5 565/1/5
f 568/1/5 567/1/5 566/1/5
f 569/1/5 567/1/5 568/1/5
f 574/2/5 571/2/5 570/2/5
f 575/2/5 571/2/5 574/2/5
f 580/1/5 573/1/5 572/1/5
f 581/1/5 573/1/5 580/1/5
f 582/1/5 577/1/5 576/1/5
f 583/1/5 577/1/5 582/1/5
f 584/1/5 579/1/5 578/1/5
f 585/1/5 579/1/5 584/1/5
f 592/4/5 587/4/5 586/4/5
f 593/4/5 587/4/5 592/4/5
f 594/4/5 589/4/5 588/4/5
f 595/4/5 589/4/5 594/4/5
f 596/4/5 591/4/5 590/4/5
f 597/4/5 591/4/5 596/4/5
f 600/1/5 599/1/5 598/1/5
f 601/1/5 599/1/5 600/1/5
f 604/2/5 602/2/5 601/2/5
f 605/2/5 602/2/5 604/2/5
f 608/1/5 604/1/5 603/1/5
f 609/1/5 604/1/5 608/1/5
f 616/1/5 607/1/5 606/1/5
f 617/1/5 607/1/5 616/1/5
f 618/4/5 611/4/5 610/4/5
f 619/4/5 611/4/5 618/4/5
f 620/4/5 613/4/5 612/4/5
f 621/4/5 613/4/5 620/4/5
f 622/4/5 615/4/5 614/4/5
f 623/4/5 615/4/5 622/4/5
f 626/3/5 625/3/5 624/3/5
f 627/3/5 625/3/5 626/3/5
f 629/3/5 628/3/5 627/3/5
f 631/1/5 627/1/5 626/1/5
f 632/3/5 630/3/5 629/3/5
f 632/1/5 627/1/5 631/1/5
f 632/3/5 629/3/5 627/3/5
f 634/3/5 630/3/5 632/3/5
f 635/3/5 630/3/5 634/3/5
f 636/3/5 630/3/5 635/3/5
f 637/1/5 634/1/5 633/1/5
f 638/3/5 635/3/5 634/3/5
f 638/1/5 634/1/5 637/1/5
f 639/3/5 635/3/5 638/3/5
f 640/3/5 638/3/5 637/3/5
f 641/3/5 638/3/5 640/3/5
f 644/3/5 643/3/5 642/3/5
f 645/3/5 643/3/5 644/3/5
f 647/3/5 646/3/5 645/3/5
f 648/3/5 646/3/5 647/3/5
f 652/3/5 650/3/5 649/3/5
f 653/3/5 650/3/5 652/3/5
f 654/3/5 652/3/5 651/3/5
f 655/3/5 652/3/5 654/3/5
f 658/3/5 657/3/5 656/3/5
f 659/3/5 657/3/5 658/3/5
f 661/1/5 659/1/5 658/1/5
f 662/3/5 660/3/5 659/3/5
f 662/1/5 659/1/5 661/1/5
f 664/3/5 660/3/5 662/3/5
f 665/1/5 664/1/5 663/1/5
f 666/3/5 660/3/5 664/3/5
f 666/1/5 664/1/5 665/1/5
f 667/3/5 660/3/5 666/3/5
f 668/3/5 666/3/5 665/3/5
f 669/3/5 666/3/5 668/3/5
f 670/2/6 671/2/6 672/2/6
f 672/2/6 671/2/6 673/2/6
f 674/4/6 675/4/6 680/4/6
f 680/4/6 675/4/6 681/4/6
f 676/4/6 677/4/6 682/4/6
f 682/4/6 677/4/6 683/4/6
f 678/4/6 679/4/6 684/4/6
f 684/4/6 679/4/6 685/4/6
f 686/1/6 687/1/6 689/1/6
f 689/1/6 687/1/6 690/1/6
f 688/1/6 689/1/6 692/1/6
f 690/1/6 691/1/6 692/1/6
f 689/1/6 690/1/6 692/1/6
f 692/1/6 691/1/6 693/1/6
f 693/1/6 691/1/6 694/1/6
f 694/1/6 691/1/6 695/1/6
f 695/1/6 691/1/6 696/1/6
f 696/1/6 691/1/6 697/1/6
f 697/1/6 691/1/6 698/1/6
f 692/1/6 693/1/6 700/1/6
f 700/1/6 693/1/6 701/1/6
f 694/1/6 695/1/6 702/1/6
f 702/1/6 695/1/6 703/1/6
f 696/1/6 697/1/6 704/1/6
f 698/2/6 699/2/6 705/2/6
f 697/2/6 698/2/6 705/2/6
f 704/1/6 697/1/6 705/1/6
f 705/2/6 699/2/6 706/2/6
f 706/2/6 699/2/6 707/2/6
f 703/1/6 704/1/6 708/1/6
f 700/1/6 701/1/6 708/1/6
f 705/1/6 706/1/6 708/1/6
f 704/1/6 705/1/6 708/1/6
f 701/1/6 702/1/6 708/1/6
f 702/1/6 703/1/6 708/1/6
f 708/1/6 706/1/6 709/1/6
f 709/1/6 706/1/6 710/1/6
f 710/1/6 706/1/6 711/1/6
f 709/1/6 710/1/6 718/1/6
f 718/1/6 710/1/6 719/1/6
f 712/4/6 713/4/6 720/4/6
f 720/4/6 713/4/6 721/4/6
f 714/4/6 715/4/6 722/4/6
f 722/4/6 715/4/6 723/4/6
f 716/4/6 717/4/6 724/4/6
f 724/4/6 717/4/6 725/4/6
f 726/1/6 727/1/6 729/1/6
f 729/1/6 727/1/6 730/1/6
f 728/1/6 729/1/6 731/1/6
f 731/1/6 729/1/6 732/1/6
f 731/2/6 732/2/6 735/2/6
f 735/2/6 732/2/6 736/2/6
f 733/1/6 734/1/6 737/1/6
f 737/1/6 734/1/6 738/1/6
f 735/1/6 736/1/6 739/1/6
f 739/1/6 736/1/6 740/1/6
f 740/1/6 741/1/6 742/1/6
f 742/1/6 741/1/6 743/1/6
f 744/3/6 745/3/6 746/3/6
f 746/3/6 745/3/6 747/3/6
f 746/1/6 747/1/6 749/1/6
f 747/3/6 748/3/6 750/3/6
f 749/1/6 747/1/6 750/1/6
f 750/3/6 748/3/6 752/3/6
f 751/1/6 752/1/6 753/1/6
f 752/3/6 748/3/6 754/3/6
f 753/1/6 752/1/6 754/1/6
f 754/3/6 748/3/6 755/3/6
f 753/3/6 754/3/6 756/3/6
f 756/3/6 754/3/6 757/3/6
f 758/3/6 759/3/6 760/3/6
f 760/3/6 759/3/6 761/3/6
f 761/3/6 762/3/6 764/3/6
f 764/3/6 762/3/6 765/3/6
f 763/3/6 764/3/6 766/3/6
f 766/3/6 764/3/6 767/3/6
f 768/3/6 769/3/6 770/3/6
f 770/3/6 769/3/6 771/3/6
f 771/3/6 772/3/6 773/3/6
f 773/3/6 772/3/6 774/3/6
f 774/3/6 772/3/6 776/3/6
f 776/3/6 772/3/6 777/3/6
f 775/3/6 776/3/6 778/3/6
f 778/3/6 776/3/6 779/3/6
f 780/3/6 781/3/6 782/3/6
f 782/3/6 781/3/6 783/3/6
f 784/3/6 785/3/6 786/3/6
f 786/3/6 785/3/6 787/3/6
f 788/1/6 789/1/6 790/1/6
f 790/1/6 789/1/6 791/1/6
